# xmcd
#
# Track frame offsets: 
#        150
#        20677
#        36370
#        51237
#        67400
#        88940
#        113070
#        134270
#        155015
#        175360
#        194772
#        217712
#        239397
#        264795
#
# Disc length: 3849 seconds
#
# Revision: 2
# Processed by: cddbd v1.5.2PL0 Copyright (c) Steve Scherf et al.
# Submitted via: ExactAudioCopyFreeDBPlugin 1.0
#
DISCID=d10f070e
DTITLE=玉置浩二 - T
DYEAR=1995
DGENRE=JPop
TTITLE0=正義の味方
TTITLE1=情熱
TTITLE2=キ·ツ·イ
TTITLE3=じれったい
TTITLE4=ふたりなら
TTITLE5=あの頃へ
TTITLE6=カリント工場の煙突の上に
TTITLE7=ROOTS
TTITLE8=ワインレッドの心
TTITLE9=悲しみにさよなら
TTITLE10=I LOVE YOUからはじめよう
TTITLE11=ロマン
TTITLE12=コール
TTITLE13=星になりたい
EXTD=
EXTT0=
EXTT1=
EXTT2=
EXTT3=
EXTT4=
EXTT5=
EXTT6=
EXTT7=
EXTT8=
EXTT9=
EXTT10=
EXTT11=
EXTT12=
EXTT13=
PLAYORDER=
